<?xml version="1.0" encoding="UTF-8"?>
<svg version="1.1" xmlns="http://www.w3.org/2000/svg" width="512" height="512">
<path d="M0 0 C1.57445892 -0.00151062 1.57445892 -0.00151062 3.1807251 -0.00305176 C31.46797325 0.01516662 59.47420329 2.03277107 87.3125 7.25 C88.38161621 7.44932129 89.45073242 7.64864258 90.55224609 7.85400391 C120.95157684 13.69121464 151.90295806 23.05763463 177.3125 41.25 C177.87211426 41.64880371 178.43172852 42.04760742 179.00830078 42.45849609 C224.03892151 75.04830164 243.20248857 125.72564334 251.921875 178.97119141 C253.26264534 187.70771435 254.34878446 196.46452823 255.3125 205.25 C255.49039063 206.82128662 255.49039063 206.82128662 255.671875 208.42431641 C263.85188862 284.0285792 257.83115028 379.697083 208.8515625 441.36767578 C204.89645242 446.20490591 200.66582066 450.7692029 196.3125 455.25 C195.77681396 455.8076001 195.24112793 456.3652002 194.68920898 456.93969727 C158.54668341 493.97275685 101.53178885 504.85092814 52.3125 510.25 C51.26497559 510.36859375 50.21745117 510.4871875 49.13818359 510.609375 C-25.50841197 518.68577368 -122.47935285 513.21719426 -183.39477539 464.76708984 C-209.10698989 443.57774681 -226.24101527 416.77711561 -236.6875 385.25 C-236.98994629 384.34121094 -237.29239258 383.43242187 -237.60400391 382.49609375 C-245.53764482 358.15779905 -250.00282884 332.67146043 -252.6875 307.25 C-252.79046387 306.35925781 -252.89342773 305.46851563 -252.99951172 304.55078125 C-256.98751318 269.21948232 -256.05675263 232.50245448 -251.6875 197.25 C-251.54296387 196.06019531 -251.39842773 194.87039062 -251.24951172 193.64453125 C-246.34156222 154.46789784 -237.05528353 112.88812393 -213.6875 80.25 C-213.08929443 79.41057861 -213.08929443 79.41057861 -212.47900391 78.55419922 C-191.19197638 49.14107303 -161.95324975 29.60392899 -127.6875 18.25 C-126.32431641 17.79633057 -126.32431641 17.79633057 -124.93359375 17.33349609 C-84.87479024 4.27538473 -41.95671678 0.02809841 0 0 Z " fill="#FD6869" transform="translate(254.6875,-0.24999999999999997)"/>
<path d="M0 0 C1.47115847 -0.00761181 1.47115847 -0.00761181 2.97203732 -0.0153774 C4.04196202 -0.01587516 5.11188673 -0.01637292 6.2142334 -0.01688576 C7.35681138 -0.02126801 8.49938936 -0.02565027 9.67659092 -0.03016531 C13.51400988 -0.0435443 17.35140587 -0.04973021 21.18884277 -0.0558567 C23.93692806 -0.06323384 26.68500856 -0.07202262 29.43309021 -0.08063698 C37.68623126 -0.10513072 45.93937827 -0.119784 54.19254446 -0.13269705 C56.52516945 -0.13641129 58.85779384 -0.14038433 61.19041824 -0.14444971 C75.68802039 -0.16968936 90.18562353 -0.19173382 104.6832428 -0.20417786 C108.03943892 -0.20710736 111.39563501 -0.21006905 114.75183105 -0.21308327 C115.58595626 -0.21382932 116.42008147 -0.21457537 117.2794832 -0.21534403 C130.78225452 -0.22798912 144.28489392 -0.2612026 157.78760362 -0.3028851 C171.66324781 -0.34536626 185.53882458 -0.36888004 199.41453362 -0.37409842 C207.20007053 -0.37750561 214.9854013 -0.38917872 222.77087402 -0.42220116 C229.40343128 -0.45028801 236.03574009 -0.46116338 242.66835219 -0.4500057 C246.04845717 -0.4448407 249.42762375 -0.45032416 252.80772209 -0.47247124 C284.22441429 -0.66705454 284.22441429 -0.66705454 295.31774902 10.12138939 C302.56986103 18.64551193 305.3464606 27.47549523 305.30001831 38.49718285 C305.30454942 39.30001127 305.30908054 40.10283969 305.31374896 40.92999625 C305.32633189 43.59964803 305.32477656 46.2690942 305.32312012 48.9387722 C305.32910921 50.86134666 305.33591563 52.78391873 305.34347534 54.70648766 C305.36110435 59.91534414 305.36582943 65.12413487 305.36710691 70.3330183 C305.36853089 73.59156091 305.37280519 76.85008693 305.37810135 80.10862541 C305.3965918 91.48870462 305.40477325 102.86873706 305.40319824 114.2488308 C305.40199731 124.83705815 305.4230928 135.42508151 305.45468557 146.01325727 C305.48088482 155.1201222 305.491564 164.22692066 305.49028742 173.33382297 C305.48977884 178.76568134 305.49540464 184.19735835 305.51664352 189.629179 C305.53608725 194.74122775 305.53610849 199.85292328 305.52161026 204.96498489 C305.51952863 206.83374806 305.52418427 208.7025337 305.53633118 210.57125854 C305.61628254 223.73087399 304.98389651 235.6089037 296.09509277 246.16435814 C292.51988686 249.58382591 288.45663285 251.96766998 284.03259277 254.13701439 C282.96432755 254.68208389 282.96432755 254.68208389 281.8744812 255.2381649 C278.18007045 256.40665526 274.92163711 256.08085447 271.13269043 255.71001244 C269.50538221 255.57644188 267.87787211 255.4453146 266.25019836 255.31627464 C265.38825174 255.24608368 264.52630512 255.17589272 263.63823891 255.10357475 C217.81327099 250.1762872 217.81327099 250.1762872 176.68669128 266.05952072 C164.72592365 276.4180043 154.65251718 289.03941859 145.82600403 302.11893272 C143.24777736 305.02014791 140.56398704 305.90797107 136.78649902 306.47295189 C136.06333496 306.48584251 135.3401709 306.49873314 134.59509277 306.51201439 C133.87450684 306.54037376 133.1539209 306.56873314 132.41149902 306.59795189 C125.53392899 305.26535211 120.44463662 298.80982293 115.74743652 294.04717064 C114.96872696 293.26563118 114.1900174 292.48409172 113.38771057 291.67886925 C110.91041456 289.19042802 108.44016792 286.69512128 105.97009277 284.19951439 C104.30584338 282.52522477 102.64113444 280.85139181 100.97595215 279.17803001 C97.91767465 276.10345724 94.86204183 273.02631013 91.80969238 269.94585228 C88.89187137 267.00162484 85.96653018 264.0651971 83.03259277 261.13701439 C82.49941437 260.44084511 81.96623596 259.74467583 81.41690063 259.02741051 C78.01013507 256.32635981 74.80718097 256.59528112 70.64318848 256.65459251 C69.7987468 256.65068001 68.95430511 256.6467675 68.08427429 256.64273643 C66.25203001 256.63676256 64.4197383 256.63992946 62.58751869 256.65115929 C59.68177027 256.66842244 56.77701685 256.66091118 53.8712616 256.64690208 C46.65107999 256.617248 39.4310877 256.63041009 32.21087646 256.64208031 C26.1146693 256.65030538 20.01889621 256.6422473 13.92275047 256.61295128 C11.07043895 256.60588714 8.21890373 256.62250148 5.36665344 256.64006615 C3.60075472 256.63435361 1.83485912 256.62753404 0.06896973 256.61943626 C-0.7152536 256.63075081 -1.49947693 256.64206535 -2.3074646 256.65372276 C-11.37447998 256.55502011 -19.44498759 252.31542455 -25.96740723 246.13701439 C-35.62046388 234.75863765 -35.40587789 222.22860022 -35.35559082 208.07646751 C-35.35966092 206.15035264 -35.36500526 204.2242401 -35.371521 202.29813194 C-35.38514816 197.0894824 -35.37991496 191.88101197 -35.37038374 186.67235947 C-35.36276327 181.20911633 -35.36983937 175.74588804 -35.37454224 170.28264427 C-35.37999284 161.10988691 -35.37282642 151.93720213 -35.35852051 142.7644558 C-35.34219537 132.17503686 -35.34748437 121.58579125 -35.36399972 110.99637651 C-35.37763439 101.88779869 -35.37952456 92.77927289 -35.37168372 83.67068815 C-35.3670181 78.2378496 -35.36635173 72.80509239 -35.37629318 67.37225914 C-35.3849894 62.26350457 -35.37889248 57.15497243 -35.36161041 52.04624176 C-35.35765974 50.17664585 -35.35875516 48.30703106 -35.36539841 46.43744278 C-35.41157632 32.11619062 -34.55530899 20.38393979 -24.33850098 9.38310814 C-17.53478905 3.08454419 -9.22076849 0.02544239 0 0 Z " fill="#FE6C66" transform="translate(119.9674072265625,101.86298561096191)"/>
<path d="M0 0 C1.47115847 -0.00761181 1.47115847 -0.00761181 2.97203732 -0.0153774 C4.04196202 -0.01587516 5.11188673 -0.01637292 6.2142334 -0.01688576 C7.35681138 -0.02126801 8.49938936 -0.02565027 9.67659092 -0.03016531 C13.51400988 -0.0435443 17.35140587 -0.04973021 21.18884277 -0.0558567 C23.93692806 -0.06323384 26.68500856 -0.07202262 29.43309021 -0.08063698 C37.68623126 -0.10513072 45.93937827 -0.119784 54.19254446 -0.13269705 C56.52516945 -0.13641129 58.85779384 -0.14038433 61.19041824 -0.14444971 C75.68802039 -0.16968936 90.18562353 -0.19173382 104.6832428 -0.20417786 C108.03943892 -0.20710736 111.39563501 -0.21006905 114.75183105 -0.21308327 C115.58595626 -0.21382932 116.42008147 -0.21457537 117.2794832 -0.21534403 C130.78225452 -0.22798912 144.28489392 -0.2612026 157.78760362 -0.3028851 C171.66324781 -0.34536626 185.53882458 -0.36888004 199.41453362 -0.37409842 C207.20007053 -0.37750561 214.9854013 -0.38917872 222.77087402 -0.42220116 C229.40343128 -0.45028801 236.03574009 -0.46116338 242.66835219 -0.4500057 C246.04845717 -0.4448407 249.42762375 -0.45032416 252.80772209 -0.47247124 C284.22441429 -0.66705454 284.22441429 -0.66705454 295.31774902 10.12138939 C302.56986103 18.64551193 305.3464606 27.47549523 305.30001831 38.49718285 C305.30454942 39.30001127 305.30908054 40.10283969 305.31374896 40.92999625 C305.32633189 43.59964803 305.32477656 46.2690942 305.32312012 48.9387722 C305.32910921 50.86134666 305.33591563 52.78391873 305.34347534 54.70648766 C305.36110435 59.91534414 305.36582943 65.12413487 305.36710691 70.3330183 C305.36853089 73.59156091 305.37280519 76.85008693 305.37810135 80.10862541 C305.3965918 91.48870462 305.40477325 102.86873706 305.40319824 114.2488308 C305.40199731 124.83705815 305.4230928 135.42508151 305.45468557 146.01325727 C305.48088482 155.1201222 305.491564 164.22692066 305.49028742 173.33382297 C305.48977884 178.76568134 305.49540464 184.19735835 305.51664352 189.629179 C305.53608725 194.74122775 305.53610849 199.85292328 305.52161026 204.96498489 C305.51952863 206.83374806 305.52418427 208.7025337 305.53633118 210.57125854 C305.61628254 223.73087399 304.98389651 235.6089037 296.09509277 246.16435814 C292.51988686 249.58382591 288.45663285 251.96766998 284.03259277 254.13701439 C282.96432755 254.68208389 282.96432755 254.68208389 281.8744812 255.2381649 C278.18007045 256.40665526 274.92163711 256.08085447 271.13269043 255.71001244 C269.50538221 255.57644188 267.87787211 255.4453146 266.25019836 255.31627464 C265.38825174 255.24608368 264.52630512 255.17589272 263.63823891 255.10357475 C217.81327099 250.1762872 217.81327099 250.1762872 176.68669128 266.05952072 C164.72592365 276.4180043 154.65251718 289.03941859 145.82600403 302.11893272 C143.24777736 305.02014791 140.56398704 305.90797107 136.78649902 306.47295189 C136.06333496 306.48584251 135.3401709 306.49873314 134.59509277 306.51201439 C133.87450684 306.54037376 133.1539209 306.56873314 132.41149902 306.59795189 C125.53392899 305.26535211 120.44463662 298.80982293 115.74743652 294.04717064 C114.96872696 293.26563118 114.1900174 292.48409172 113.38771057 291.67886925 C110.91041456 289.19042802 108.44016792 286.69512128 105.97009277 284.19951439 C104.30584338 282.52522477 102.64113444 280.85139181 100.97595215 279.17803001 C97.91767465 276.10345724 94.86204183 273.02631013 91.80969238 269.94585228 C88.89187137 267.00162484 85.96653018 264.0651971 83.03259277 261.13701439 C82.49941437 260.44084511 81.96623596 259.74467583 81.41690063 259.02741051 C78.01013507 256.32635981 74.80718097 256.59528112 70.64318848 256.65459251 C69.7987468 256.65068001 68.95430511 256.6467675 68.08427429 256.64273643 C66.25203001 256.63676256 64.4197383 256.63992946 62.58751869 256.65115929 C59.68177027 256.66842244 56.77701685 256.66091118 53.8712616 256.64690208 C46.65107999 256.617248 39.4310877 256.63041009 32.21087646 256.64208031 C26.1146693 256.65030538 20.01889621 256.6422473 13.92275047 256.61295128 C11.07043895 256.60588714 8.21890373 256.62250148 5.36665344 256.64006615 C3.60075472 256.63435361 1.83485912 256.62753404 0.06896973 256.61943626 C-0.7152536 256.63075081 -1.49947693 256.64206535 -2.3074646 256.65372276 C-11.37447998 256.55502011 -19.44498759 252.31542455 -25.96740723 246.13701439 C-35.62046388 234.75863765 -35.40587789 222.22860022 -35.35559082 208.07646751 C-35.35966092 206.15035264 -35.36500526 204.2242401 -35.371521 202.29813194 C-35.38514816 197.0894824 -35.37991496 191.88101197 -35.37038374 186.67235947 C-35.36276327 181.20911633 -35.36983937 175.74588804 -35.37454224 170.28264427 C-35.37999284 161.10988691 -35.37282642 151.93720213 -35.35852051 142.7644558 C-35.34219537 132.17503686 -35.34748437 121.58579125 -35.36399972 110.99637651 C-35.37763439 101.88779869 -35.37952456 92.77927289 -35.37168372 83.67068815 C-35.3670181 78.2378496 -35.36635173 72.80509239 -35.37629318 67.37225914 C-35.3849894 62.26350457 -35.37889248 57.15497243 -35.36161041 52.04624176 C-35.35765974 50.17664585 -35.35875516 48.30703106 -35.36539841 46.43744278 C-35.41157632 32.11619062 -34.55530899 20.38393979 -24.33850098 9.38310814 C-17.53478905 3.08454419 -9.22076849 0.02544239 0 0 Z M0.03259277 35.13701439 C0.03259277 96.84701439 0.03259277 158.55701439 0.03259277 222.13701439 C28.74259277 222.46701439 57.45259277 222.79701439 87.03259277 223.13701439 C96.59763625 227.12244917 101.40600184 229.49450885 108.07946777 236.50029564 C108.86154602 237.29227852 109.64362427 238.0842614 110.44940186 238.90024376 C112.91092956 241.40053847 115.34679555 243.92417289 117.78259277 246.44951439 C119.46063381 248.16271716 121.14030809 249.87432181 122.82165527 251.58428001 C126.91100886 255.75025811 130.97965361 259.93561751 135.03259277 264.13701439 C138.13770613 262.75819067 140.2285553 261.17819988 142.60437012 258.76054955 C143.28542816 258.07288506 143.96648621 257.38522057 144.66818237 256.67671776 C145.75735458 255.56265053 145.75735458 255.56265053 146.86853027 254.42607689 C147.62550201 253.66153191 148.38247375 252.89698692 149.16238403 252.10927391 C152.39786047 248.84113735 155.62145705 245.56137306 158.84606934 242.2825222 C161.20358701 239.8887497 163.56714177 237.50105565 165.93103027 235.11357689 C167.01412979 234.00558235 167.01412979 234.00558235 168.11911011 232.87520409 C168.80647247 232.18123528 169.49383484 231.48726646 170.20202637 230.7722683 C170.79840912 230.16541191 171.39479187 229.55855553 172.00924683 228.93330956 C196.99986481 206.74702631 238.61657529 222.50023197 272.03259277 222.13701439 C272.03259277 160.42701439 272.03259277 98.71701439 272.03259277 35.13701439 C182.27259277 35.13701439 92.51259277 35.13701439 0.03259277 35.13701439 Z " fill="#FEFCFB" transform="translate(119.9674072265625,101.86298561096191)"/>
<path d="M0 0 C6.86198596 3.8797144 12.43627936 9.53651983 14.94140625 17.09765625 C16.2378101 24.98493768 15.41349955 31.24927496 10.8515625 37.87109375 C5.63067779 43.95678758 -0.26509963 48.38093533 -8.33203125 49.37890625 C-16.09969829 49.85691653 -21.06242464 47.28037592 -27.03515625 42.5234375 C-32.82391808 37.23965277 -36.12226971 31.09366671 -36.68359375 23.22265625 C-36.36230682 16.9526931 -33.89288717 11.99622123 -30.05859375 7.09765625 C-21.12101297 -0.84686 -11.61304303 -5.04404899 0 0 Z " fill="#FEFDFD" transform="translate(198.05859375,206.90234375)"/>
<path d="M0 0 C0.86625 0.53625 1.7325 1.0725 2.625 1.625 C8.2374132 7.2374132 11.56393416 13.78469688 12.375 21.625 C12.25701309 28.66488571 8.40618872 34.80637499 3.75 39.875 C-1.44112856 44.61765093 -7.01292758 47.16482094 -14.0625 47.5 C-22.09502916 47.12697233 -28.6347822 42.8079785 -34 37 C-38.70612042 31.12923362 -39.80687008 25.60643507 -39.4765625 18.1484375 C-38.3118659 10.45380258 -34.04784733 5.23492467 -28.09765625 0.44140625 C-19.11911503 -5.72820587 -9.12454996 -5.8643175 0 0 Z " fill="#FEFDFD" transform="translate(338,209)"/>
<path d="M0 0 C6.88742129 3.44967895 13.71312294 9.88930816 16.50390625 17.19140625 C17.61686781 25.83736024 16.68192552 33.07475658 11.50390625 40.19140625 C6.03062052 46.2486618 0.00015522 50.18588174 -8.30859375 50.69140625 C-15.08437493 50.4442653 -20.5571033 47.83207812 -25.57421875 43.32421875 C-32.00581144 36.37917959 -34.21140683 29.86641494 -33.97265625 20.4140625 C-32.88552929 13.06258918 -27.89181472 7.85861786 -22.1953125 3.41015625 C-15.42399942 -1.44650969 -8.04941971 -2.6075585 0 0 Z " fill="#FEFDFD" transform="translate(264.49609375,205.80859375)"/>
</svg>
